<mxfile host="Electron" modified="2023-08-31T00:54:20.381Z" agent="Mozilla/5.0 (X11; Linux x86_64) AppleWebKit/537.36 (KHTML, like Gecko) draw.io/21.6.8 Chrome/114.0.5735.289 Electron/25.5.0 Safari/537.36" etag="PjdZXVfZk3dD1C4zRDli" version="21.6.8" type="device">
  <diagram name="Page-1" id="JVN_-1KQDsrumrTh3BVl">
    <mxGraphModel dx="2603" dy="2287" grid="1" gridSize="10" guides="1" tooltips="1" connect="1" arrows="1" fold="1" page="1" pageScale="1" pageWidth="850" pageHeight="1100" math="0" shadow="0">
      <root>
        <mxCell id="0" />
        <mxCell id="1" parent="0" />
        <mxCell id="n7axWWjlx_CXy5CK1rkt-1" value="" style="rounded=1;whiteSpace=wrap;html=1;dashed=1;dashPattern=8 8;strokeColor=#0000CC;" parent="1" vertex="1">
          <mxGeometry x="880" y="-500" width="350" height="360" as="geometry" />
        </mxCell>
        <mxCell id="n7axWWjlx_CXy5CK1rkt-2" value="" style="rounded=1;whiteSpace=wrap;html=1;dashed=1;dashPattern=8 8;strokeColor=#0000CC;" parent="1" vertex="1">
          <mxGeometry x="350" y="-515" width="270" height="260" as="geometry" />
        </mxCell>
        <mxCell id="n7axWWjlx_CXy5CK1rkt-3" value="" style="rounded=1;whiteSpace=wrap;html=1;dashed=1;dashPattern=8 8;strokeColor=#0000CC;" parent="1" vertex="1">
          <mxGeometry x="1377.5" y="205" width="260" height="240" as="geometry" />
        </mxCell>
        <mxCell id="n7axWWjlx_CXy5CK1rkt-4" value="" style="rounded=1;whiteSpace=wrap;html=1;dashed=1;dashPattern=8 8;strokeColor=#0000CC;" parent="1" vertex="1">
          <mxGeometry x="100" y="90" width="760" height="670" as="geometry" />
        </mxCell>
        <mxCell id="n7axWWjlx_CXy5CK1rkt-5" value="" style="image;html=1;image=img/lib/clip_art/computers/Database_128x128.png" parent="1" vertex="1">
          <mxGeometry x="1515" y="310" width="70" height="50" as="geometry" />
        </mxCell>
        <mxCell id="n7axWWjlx_CXy5CK1rkt-6" value="" style="image;html=1;image=img/lib/clip_art/computers/Database_128x128.png" parent="1" vertex="1">
          <mxGeometry x="700" y="200" width="70" height="50" as="geometry" />
        </mxCell>
        <mxCell id="n7axWWjlx_CXy5CK1rkt-7" value="" style="image;html=1;image=img/lib/clip_art/computers/Database_128x128.png" parent="1" vertex="1">
          <mxGeometry x="260" y="200" width="70" height="50" as="geometry" />
        </mxCell>
        <mxCell id="n7axWWjlx_CXy5CK1rkt-8" value="" style="verticalLabelPosition=bottom;html=1;verticalAlign=top;align=center;strokeColor=none;fillColor=#00BEF2;shape=mxgraph.azure.virtual_machine;" parent="1" vertex="1">
          <mxGeometry x="630" y="170" width="80" height="70" as="geometry" />
        </mxCell>
        <mxCell id="n7axWWjlx_CXy5CK1rkt-9" value="" style="verticalLabelPosition=bottom;html=1;verticalAlign=top;align=center;strokeColor=none;fillColor=#00BEF2;shape=mxgraph.azure.virtual_machine;" parent="1" vertex="1">
          <mxGeometry x="1450" y="280" width="80" height="70" as="geometry" />
        </mxCell>
        <mxCell id="n7axWWjlx_CXy5CK1rkt-10" value="" style="verticalLabelPosition=bottom;html=1;verticalAlign=top;align=center;strokeColor=none;fillColor=#00BEF2;shape=mxgraph.azure.virtual_machine;" parent="1" vertex="1">
          <mxGeometry x="190" y="170" width="80" height="70" as="geometry" />
        </mxCell>
        <mxCell id="n7axWWjlx_CXy5CK1rkt-11" value="" style="verticalLabelPosition=bottom;html=1;verticalAlign=top;align=center;strokeColor=none;fillColor=#00BEF2;shape=mxgraph.azure.virtual_machine;" parent="1" vertex="1">
          <mxGeometry x="425" y="420" width="80" height="70" as="geometry" />
        </mxCell>
        <mxCell id="n7axWWjlx_CXy5CK1rkt-12" value="" style="image;sketch=0;aspect=fixed;html=1;points=[];align=center;fontSize=12;image=img/lib/mscae/Docker.svg;" parent="1" vertex="1">
          <mxGeometry x="200" y="250" width="60.98" height="50" as="geometry" />
        </mxCell>
        <mxCell id="n7axWWjlx_CXy5CK1rkt-13" value="" style="image;sketch=0;aspect=fixed;html=1;points=[];align=center;fontSize=12;image=img/lib/mscae/Docker.svg;" parent="1" vertex="1">
          <mxGeometry x="1485" y="330" width="60.98" height="50" as="geometry" />
        </mxCell>
        <mxCell id="n7axWWjlx_CXy5CK1rkt-14" value="" style="image;sketch=0;aspect=fixed;html=1;points=[];align=center;fontSize=12;image=img/lib/mscae/Docker.svg;" parent="1" vertex="1">
          <mxGeometry x="360" y="530" width="60.98" height="50" as="geometry" />
        </mxCell>
        <mxCell id="n7axWWjlx_CXy5CK1rkt-15" value="Mongo DB Host" style="text;html=1;strokeColor=none;fillColor=none;align=center;verticalAlign=middle;whiteSpace=wrap;rounded=0;" parent="1" vertex="1">
          <mxGeometry x="200" y="130" width="60" height="30" as="geometry" />
        </mxCell>
        <mxCell id="n7axWWjlx_CXy5CK1rkt-16" value="neo4j&lt;br&gt;hosname = neo" style="text;html=1;strokeColor=none;fillColor=none;align=center;verticalAlign=middle;whiteSpace=wrap;rounded=0;" parent="1" vertex="1">
          <mxGeometry x="620" y="130" width="100" height="30" as="geometry" />
        </mxCell>
        <mxCell id="n7axWWjlx_CXy5CK1rkt-17" value="Elastisearch" style="text;html=1;strokeColor=none;fillColor=none;align=center;verticalAlign=middle;whiteSpace=wrap;rounded=0;" parent="1" vertex="1">
          <mxGeometry x="435" y="370" width="60" height="30" as="geometry" />
        </mxCell>
        <mxCell id="n7axWWjlx_CXy5CK1rkt-18" value="" style="image;html=1;image=img/lib/clip_art/computers/Database_128x128.png" parent="1" vertex="1">
          <mxGeometry x="460" y="470" width="70" height="50" as="geometry" />
        </mxCell>
        <mxCell id="n7axWWjlx_CXy5CK1rkt-19" value="" style="image;sketch=0;aspect=fixed;html=1;points=[];align=center;fontSize=12;image=img/lib/mscae/Docker.svg;" parent="1" vertex="1">
          <mxGeometry x="444.02" y="530" width="60.98" height="50" as="geometry" />
        </mxCell>
        <mxCell id="n7axWWjlx_CXy5CK1rkt-20" value="" style="image;sketch=0;aspect=fixed;html=1;points=[];align=center;fontSize=12;image=img/lib/mscae/Docker.svg;" parent="1" vertex="1">
          <mxGeometry x="530" y="530" width="60.98" height="50" as="geometry" />
        </mxCell>
        <mxCell id="n7axWWjlx_CXy5CK1rkt-21" value="&lt;font color=&quot;#ff0000&quot; style=&quot;font-size: 16px;&quot;&gt;DB Subnet 172.31.4.0/24&lt;/font&gt;" style="text;html=1;strokeColor=none;fillColor=none;align=center;verticalAlign=middle;whiteSpace=wrap;rounded=0;" parent="1" vertex="1">
          <mxGeometry x="377.01" y="50" width="210" height="30" as="geometry" />
        </mxCell>
        <mxCell id="n7axWWjlx_CXy5CK1rkt-22" value="27017 -&amp;gt; 6655" style="text;html=1;strokeColor=none;fillColor=none;align=center;verticalAlign=middle;whiteSpace=wrap;rounded=0;" parent="1" vertex="1">
          <mxGeometry x="190.00000000000003" y="300" width="80" height="30" as="geometry" />
        </mxCell>
        <mxCell id="n7axWWjlx_CXy5CK1rkt-23" value="7687 -&amp;gt; 7687&lt;br&gt;7473 -&amp;gt; 7473" style="text;html=1;strokeColor=none;fillColor=none;align=center;verticalAlign=middle;whiteSpace=wrap;rounded=0;" parent="1" vertex="1">
          <mxGeometry x="630.49" y="310" width="80" height="30" as="geometry" />
        </mxCell>
        <mxCell id="n7axWWjlx_CXy5CK1rkt-24" value="ES01" style="text;html=1;strokeColor=none;fillColor=none;align=center;verticalAlign=middle;whiteSpace=wrap;rounded=0;" parent="1" vertex="1">
          <mxGeometry x="360" y="580" width="60" height="30" as="geometry" />
        </mxCell>
        <mxCell id="n7axWWjlx_CXy5CK1rkt-25" value="ES02" style="text;html=1;strokeColor=none;fillColor=none;align=center;verticalAlign=middle;whiteSpace=wrap;rounded=0;" parent="1" vertex="1">
          <mxGeometry x="444.02" y="580" width="60" height="30" as="geometry" />
        </mxCell>
        <mxCell id="n7axWWjlx_CXy5CK1rkt-26" value="ES03" style="text;html=1;strokeColor=none;fillColor=none;align=center;verticalAlign=middle;whiteSpace=wrap;rounded=0;" parent="1" vertex="1">
          <mxGeometry x="530" y="580" width="60" height="30" as="geometry" />
        </mxCell>
        <mxCell id="n7axWWjlx_CXy5CK1rkt-27" value="&amp;nbsp;Port 9300 Intra Container Communication" style="text;html=1;strokeColor=none;fillColor=none;align=center;verticalAlign=middle;whiteSpace=wrap;rounded=0;" parent="1" vertex="1">
          <mxGeometry x="351.52" y="610" width="245.98" height="30" as="geometry" />
        </mxCell>
        <mxCell id="n7axWWjlx_CXy5CK1rkt-28" value="Port 9200 Exposed outside VNET" style="text;html=1;strokeColor=none;fillColor=none;align=center;verticalAlign=middle;whiteSpace=wrap;rounded=0;" parent="1" vertex="1">
          <mxGeometry x="377.01" y="640" width="195" height="30" as="geometry" />
        </mxCell>
        <mxCell id="n7axWWjlx_CXy5CK1rkt-29" value="&lt;font color=&quot;#ff0000&quot; style=&quot;font-size: 16px;&quot;&gt;RabbitMQ Subnet 172.31.3.0/24&lt;/font&gt;" style="text;html=1;strokeColor=none;fillColor=none;align=center;verticalAlign=middle;whiteSpace=wrap;rounded=0;" parent="1" vertex="1">
          <mxGeometry x="1370" y="460" width="260" height="30" as="geometry" />
        </mxCell>
        <mxCell id="n7axWWjlx_CXy5CK1rkt-30" value="RabbitMQ" style="text;html=1;strokeColor=none;fillColor=none;align=center;verticalAlign=middle;whiteSpace=wrap;rounded=0;" parent="1" vertex="1">
          <mxGeometry x="1470" y="240" width="60" height="30" as="geometry" />
        </mxCell>
        <mxCell id="n7axWWjlx_CXy5CK1rkt-31" value="5671 -&amp;gt; 5671&lt;br&gt;15671 -&amp;gt; 15671" style="text;html=1;strokeColor=none;fillColor=none;align=center;verticalAlign=middle;whiteSpace=wrap;rounded=0;" parent="1" vertex="1">
          <mxGeometry x="1455" y="390" width="105" height="30" as="geometry" />
        </mxCell>
        <mxCell id="n7axWWjlx_CXy5CK1rkt-32" value="" style="rounded=1;whiteSpace=wrap;html=1;dashed=1;dashPattern=8 8;strokeColor=#0000CC;" parent="1" vertex="1">
          <mxGeometry x="1010" y="140" width="210" height="310" as="geometry" />
        </mxCell>
        <mxCell id="n7axWWjlx_CXy5CK1rkt-33" value="&lt;font color=&quot;#ff0000&quot; style=&quot;font-size: 16px;&quot;&gt;Celery Subnet 172.31.2.0/24&lt;/font&gt;" style="text;html=1;strokeColor=none;fillColor=none;align=center;verticalAlign=middle;whiteSpace=wrap;rounded=0;" parent="1" vertex="1">
          <mxGeometry x="1010" y="460" width="210" height="30" as="geometry" />
        </mxCell>
        <mxCell id="n7axWWjlx_CXy5CK1rkt-34" value="" style="shape=flexArrow;endArrow=classic;startArrow=classic;html=1;rounded=0;exitX=1.015;exitY=0.544;exitDx=0;exitDy=0;exitPerimeter=0;entryX=-0.01;entryY=0.429;entryDx=0;entryDy=0;entryPerimeter=0;" parent="1" edge="1">
          <mxGeometry width="100" height="100" relative="1" as="geometry">
            <mxPoint x="1224.1200000000001" y="300.6799999999999" as="sourcePoint" />
            <mxPoint x="1375.8700000000001" y="300.00000000000006" as="targetPoint" />
            <Array as="points" />
          </mxGeometry>
        </mxCell>
        <mxCell id="n7axWWjlx_CXy5CK1rkt-35" value="" style="shape=flexArrow;endArrow=classic;startArrow=classic;html=1;rounded=0;exitX=1.001;exitY=0.306;exitDx=0;exitDy=0;exitPerimeter=0;" parent="1" source="n7axWWjlx_CXy5CK1rkt-4" target="n7axWWjlx_CXy5CK1rkt-32" edge="1">
          <mxGeometry width="100" height="100" relative="1" as="geometry">
            <mxPoint x="760" y="760" as="sourcePoint" />
            <mxPoint x="900" y="790" as="targetPoint" />
          </mxGeometry>
        </mxCell>
        <mxCell id="n7axWWjlx_CXy5CK1rkt-36" value="" style="image;aspect=fixed;html=1;points=[];align=center;fontSize=12;image=img/lib/azure2/compute/VM_Scale_Sets.svg;" parent="1" vertex="1">
          <mxGeometry x="1060" y="250" width="140" height="140" as="geometry" />
        </mxCell>
        <mxCell id="n7axWWjlx_CXy5CK1rkt-37" value="Hostname = celery-workerXXXXXX" style="text;html=1;strokeColor=none;fillColor=none;align=center;verticalAlign=middle;whiteSpace=wrap;rounded=0;" parent="1" vertex="1">
          <mxGeometry x="1045" y="200" width="150" height="30" as="geometry" />
        </mxCell>
        <mxCell id="n7axWWjlx_CXy5CK1rkt-38" value="" style="verticalLabelPosition=bottom;html=1;verticalAlign=top;align=center;strokeColor=none;fillColor=#00BEF2;shape=mxgraph.azure.virtual_machine;" parent="1" vertex="1">
          <mxGeometry x="440" y="-460" width="80" height="70" as="geometry" />
        </mxCell>
        <mxCell id="n7axWWjlx_CXy5CK1rkt-39" value="" style="image;sketch=0;aspect=fixed;html=1;points=[];align=center;fontSize=12;image=img/lib/mscae/Docker.svg;" parent="1" vertex="1">
          <mxGeometry x="640" y="250" width="60.98" height="50" as="geometry" />
        </mxCell>
        <mxCell id="n7axWWjlx_CXy5CK1rkt-40" value="" style="image;sketch=0;aspect=fixed;html=1;points=[];align=center;fontSize=12;image=img/lib/mscae/Docker.svg;" parent="1" vertex="1">
          <mxGeometry x="449.51" y="-380" width="60.98" height="50" as="geometry" />
        </mxCell>
        <mxCell id="n7axWWjlx_CXy5CK1rkt-41" value="" style="verticalLabelPosition=bottom;html=1;verticalAlign=top;align=center;strokeColor=none;fillColor=#00BEF2;shape=mxgraph.azure.vhd_data_disk;pointerEvents=1;" parent="1" vertex="1">
          <mxGeometry x="520" y="-410" width="37.5" height="50" as="geometry" />
        </mxCell>
        <mxCell id="n7axWWjlx_CXy5CK1rkt-42" value="Portal" style="text;html=1;strokeColor=none;fillColor=none;align=center;verticalAlign=middle;whiteSpace=wrap;rounded=0;" parent="1" vertex="1">
          <mxGeometry x="449.51" y="-490" width="60" height="30" as="geometry" />
        </mxCell>
        <mxCell id="n7axWWjlx_CXy5CK1rkt-43" value="NGINX&lt;br&gt;80 -&amp;gt; 8080&lt;br&gt;443 -&amp;gt; 8443" style="text;html=1;strokeColor=none;fillColor=none;align=center;verticalAlign=middle;whiteSpace=wrap;rounded=0;" parent="1" vertex="1">
          <mxGeometry x="440" y="-320" width="70.49" height="30" as="geometry" />
        </mxCell>
        <mxCell id="n7axWWjlx_CXy5CK1rkt-44" value="&lt;font color=&quot;#ff0000&quot; style=&quot;font-size: 16px;&quot;&gt;Portal Subnet 172.31.x.0/24&lt;/font&gt;" style="text;html=1;strokeColor=none;fillColor=none;align=center;verticalAlign=middle;whiteSpace=wrap;rounded=0;" parent="1" vertex="1">
          <mxGeometry x="125.49000000000001" y="-400" width="210" height="30" as="geometry" />
        </mxCell>
        <mxCell id="n7axWWjlx_CXy5CK1rkt-45" value="Portal for each Environment" style="swimlane;fontStyle=0;childLayout=stackLayout;horizontal=1;startSize=30;horizontalStack=0;resizeParent=1;resizeParentMax=0;resizeLast=0;collapsible=1;marginBottom=0;whiteSpace=wrap;html=1;" parent="1" vertex="1">
          <mxGeometry x="557.5" y="-255" width="140" height="120" as="geometry" />
        </mxCell>
        <mxCell id="n7axWWjlx_CXy5CK1rkt-46" value="Prod" style="text;strokeColor=none;fillColor=none;align=left;verticalAlign=middle;spacingLeft=4;spacingRight=4;overflow=hidden;points=[[0,0.5],[1,0.5]];portConstraint=eastwest;rotatable=0;whiteSpace=wrap;html=1;" parent="n7axWWjlx_CXy5CK1rkt-45" vertex="1">
          <mxGeometry y="30" width="140" height="30" as="geometry" />
        </mxCell>
        <mxCell id="n7axWWjlx_CXy5CK1rkt-47" value="Test" style="text;strokeColor=none;fillColor=none;align=left;verticalAlign=middle;spacingLeft=4;spacingRight=4;overflow=hidden;points=[[0,0.5],[1,0.5]];portConstraint=eastwest;rotatable=0;whiteSpace=wrap;html=1;" parent="n7axWWjlx_CXy5CK1rkt-45" vertex="1">
          <mxGeometry y="60" width="140" height="30" as="geometry" />
        </mxCell>
        <mxCell id="n7axWWjlx_CXy5CK1rkt-48" value="Dev" style="text;strokeColor=none;fillColor=none;align=left;verticalAlign=middle;spacingLeft=4;spacingRight=4;overflow=hidden;points=[[0,0.5],[1,0.5]];portConstraint=eastwest;rotatable=0;whiteSpace=wrap;html=1;" parent="n7axWWjlx_CXy5CK1rkt-45" vertex="1">
          <mxGeometry y="90" width="140" height="30" as="geometry" />
        </mxCell>
        <mxCell id="n7axWWjlx_CXy5CK1rkt-49" value="" style="image;aspect=fixed;html=1;points=[];align=center;fontSize=12;image=img/lib/azure2/networking/Application_Gateways.svg;" parent="1" vertex="1">
          <mxGeometry x="985" y="-780" width="110" height="110" as="geometry" />
        </mxCell>
        <mxCell id="n7axWWjlx_CXy5CK1rkt-50" value="" style="image;aspect=fixed;html=1;points=[];align=center;fontSize=12;image=img/lib/azure2/compute/VM_Scale_Sets.svg;" parent="1" vertex="1">
          <mxGeometry x="960" y="-410" width="160" height="160" as="geometry" />
        </mxCell>
        <mxCell id="n7axWWjlx_CXy5CK1rkt-51" value="&lt;font style=&quot;font-size: 16px;&quot;&gt;API VM Scale Set&lt;/font&gt;" style="text;html=1;strokeColor=none;fillColor=none;align=center;verticalAlign=middle;whiteSpace=wrap;rounded=0;" parent="1" vertex="1">
          <mxGeometry x="990" y="-470" width="150" height="30" as="geometry" />
        </mxCell>
        <mxCell id="n7axWWjlx_CXy5CK1rkt-52" value="" style="verticalLabelPosition=bottom;html=1;verticalAlign=top;align=center;strokeColor=none;fillColor=#00BEF2;shape=mxgraph.azure.cloud;" parent="1" vertex="1">
          <mxGeometry x="626.98" y="-1030" width="160" height="100" as="geometry" />
        </mxCell>
        <mxCell id="n7axWWjlx_CXy5CK1rkt-53" value="" style="endArrow=classic;html=1;rounded=0;exitX=0.5;exitY=1;exitDx=0;exitDy=0;exitPerimeter=0;entryX=0.507;entryY=0.02;entryDx=0;entryDy=0;entryPerimeter=0;" parent="1" source="n7axWWjlx_CXy5CK1rkt-52" target="n7axWWjlx_CXy5CK1rkt-49" edge="1">
          <mxGeometry width="50" height="50" relative="1" as="geometry">
            <mxPoint x="990" y="-650" as="sourcePoint" />
            <mxPoint x="1040" y="-790" as="targetPoint" />
          </mxGeometry>
        </mxCell>
        <mxCell id="n7axWWjlx_CXy5CK1rkt-54" value="&lt;font style=&quot;font-size: 14px;&quot;&gt;Inbound 80&lt;br&gt;Inbound 443&lt;/font&gt;" style="text;html=1;strokeColor=none;fillColor=none;align=center;verticalAlign=middle;whiteSpace=wrap;rounded=0;" parent="1" vertex="1">
          <mxGeometry x="910" y="-880" width="90" height="30" as="geometry" />
        </mxCell>
        <mxCell id="n7axWWjlx_CXy5CK1rkt-55" value="" style="endArrow=classic;startArrow=classic;html=1;rounded=0;" parent="1" edge="1">
          <mxGeometry width="50" height="50" relative="1" as="geometry">
            <mxPoint x="1040" y="-510" as="sourcePoint" />
            <mxPoint x="1040" y="-670" as="targetPoint" />
          </mxGeometry>
        </mxCell>
        <mxCell id="n7axWWjlx_CXy5CK1rkt-56" value="&lt;font style=&quot;font-size: 14px;&quot;&gt;8080 Relay&lt;/font&gt;" style="text;html=1;strokeColor=none;fillColor=none;align=center;verticalAlign=middle;whiteSpace=wrap;rounded=0;" parent="1" vertex="1">
          <mxGeometry x="1040" y="-610" width="90" height="30" as="geometry" />
        </mxCell>
        <mxCell id="n7axWWjlx_CXy5CK1rkt-57" value="&lt;font style=&quot;font-size: 14px;&quot;&gt;Azure Application Gateway&lt;/font&gt;" style="text;html=1;strokeColor=none;fillColor=none;align=center;verticalAlign=middle;whiteSpace=wrap;rounded=0;" parent="1" vertex="1">
          <mxGeometry x="1100" y="-740" width="140" height="30" as="geometry" />
        </mxCell>
        <mxCell id="n7axWWjlx_CXy5CK1rkt-58" value="&lt;font color=&quot;#ff0000&quot; style=&quot;font-size: 16px;&quot;&gt;API Subnet 172.31.x.0/24&lt;/font&gt;" style="text;html=1;strokeColor=none;fillColor=none;align=center;verticalAlign=middle;whiteSpace=wrap;rounded=0;" parent="1" vertex="1">
          <mxGeometry x="1230" y="-380" width="210" height="30" as="geometry" />
        </mxCell>
        <mxCell id="n7axWWjlx_CXy5CK1rkt-59" value="" style="endArrow=classic;html=1;rounded=0;entryX=0.5;entryY=0;entryDx=0;entryDy=0;exitX=0.434;exitY=1.003;exitDx=0;exitDy=0;exitPerimeter=0;" parent="1" source="n7axWWjlx_CXy5CK1rkt-52" target="n7axWWjlx_CXy5CK1rkt-2" edge="1">
          <mxGeometry width="50" height="50" relative="1" as="geometry">
            <mxPoint x="700" y="-940" as="sourcePoint" />
            <mxPoint x="580" y="-510" as="targetPoint" />
          </mxGeometry>
        </mxCell>
        <mxCell id="n7axWWjlx_CXy5CK1rkt-60" value="&lt;font style=&quot;font-size: 14px;&quot;&gt;Redirects 80&lt;br&gt;Inbound 443&lt;/font&gt;" style="text;html=1;strokeColor=none;fillColor=none;align=center;verticalAlign=middle;whiteSpace=wrap;rounded=0;" parent="1" vertex="1">
          <mxGeometry x="395" y="-720" width="90" height="30" as="geometry" />
        </mxCell>
        <mxCell id="n7axWWjlx_CXy5CK1rkt-61" value="&lt;font style=&quot;font-size: 14px;&quot;&gt;Internet&lt;/font&gt;" style="text;html=1;strokeColor=none;fillColor=none;align=center;verticalAlign=middle;whiteSpace=wrap;rounded=0;" parent="1" vertex="1">
          <mxGeometry x="676.98" y="-1070" width="60" height="30" as="geometry" />
        </mxCell>
        <mxCell id="n7axWWjlx_CXy5CK1rkt-62" value="" style="shape=flexArrow;endArrow=classic;startArrow=classic;html=1;rounded=0;exitX=0.998;exitY=0.614;exitDx=0;exitDy=0;exitPerimeter=0;entryX=0;entryY=0.5;entryDx=0;entryDy=0;" parent="1" source="n7axWWjlx_CXy5CK1rkt-2" target="n7axWWjlx_CXy5CK1rkt-1" edge="1">
          <mxGeometry width="100" height="100" relative="1" as="geometry">
            <mxPoint x="640" y="-355.62" as="sourcePoint" />
            <mxPoint x="830" y="-356" as="targetPoint" />
          </mxGeometry>
        </mxCell>
        <mxCell id="n7axWWjlx_CXy5CK1rkt-63" value="" style="image;sketch=0;aspect=fixed;html=1;points=[];align=center;fontSize=12;image=img/lib/mscae/Docker.svg;" parent="1" vertex="1">
          <mxGeometry x="1095" y="-290" width="60.98" height="50" as="geometry" />
        </mxCell>
        <mxCell id="n7axWWjlx_CXy5CK1rkt-64" value="" style="shape=image;verticalLabelPosition=bottom;labelBackgroundColor=default;verticalAlign=top;aspect=fixed;imageAspect=0;image=https://www.nginx.com/wp-content/uploads/2018/08/NGINX-logo-rgb-large.png;" parent="1" vertex="1">
          <mxGeometry x="1100" y="-240" width="104.52" height="35.1" as="geometry" />
        </mxCell>
        <mxCell id="n7axWWjlx_CXy5CK1rkt-65" value="" style="shape=image;verticalLabelPosition=bottom;labelBackgroundColor=default;verticalAlign=top;aspect=fixed;imageAspect=0;image=https://www.nginx.com/wp-content/uploads/2018/08/NGINX-logo-rgb-large.png;" parent="1" vertex="1">
          <mxGeometry x="429.75" y="-285.1" width="104.52" height="35.1" as="geometry" />
        </mxCell>
        <mxCell id="n7axWWjlx_CXy5CK1rkt-66" value="&lt;font style=&quot;font-size: 14px;&quot;&gt;https://api.magic.unknowncyber.com&lt;/font&gt;" style="text;html=1;strokeColor=none;fillColor=none;align=center;verticalAlign=middle;whiteSpace=wrap;rounded=0;" parent="1" vertex="1">
          <mxGeometry x="1080" y="-700" width="240" height="30" as="geometry" />
        </mxCell>
        <mxCell id="n7axWWjlx_CXy5CK1rkt-67" value="&lt;font style=&quot;font-size: 14px;&quot;&gt;https://magic.unknowncyber.com&lt;/font&gt;" style="text;html=1;strokeColor=none;fillColor=none;align=center;verticalAlign=middle;whiteSpace=wrap;rounded=0;" parent="1" vertex="1">
          <mxGeometry x="410" y="-690" width="60" height="30" as="geometry" />
        </mxCell>
        <mxCell id="rzGydzUGZhpr6Zt9Uqbk-1" value="" style="shape=flexArrow;endArrow=classic;startArrow=classic;html=1;rounded=0;exitX=0.855;exitY=-0.004;exitDx=0;exitDy=0;exitPerimeter=0;" parent="1" source="n7axWWjlx_CXy5CK1rkt-4" target="n7axWWjlx_CXy5CK1rkt-1" edge="1">
          <mxGeometry width="100" height="100" relative="1" as="geometry">
            <mxPoint x="770" y="-150" as="sourcePoint" />
            <mxPoint x="1031" y="-150" as="targetPoint" />
          </mxGeometry>
        </mxCell>
        <mxCell id="v65WWIGyQm5wGZnxy9w8-1" value="TLS Termination Handled at APG" style="text;html=1;strokeColor=none;fillColor=none;align=center;verticalAlign=middle;whiteSpace=wrap;rounded=0;" vertex="1" parent="1">
          <mxGeometry x="1240" y="-740" width="120" height="30" as="geometry" />
        </mxCell>
        <mxCell id="v65WWIGyQm5wGZnxy9w8-2" value="" style="shape=image;verticalLabelPosition=bottom;labelBackgroundColor=default;verticalAlign=top;aspect=fixed;imageAspect=0;image=https://static-00.iconduck.com/assets.00/gunicorn-icon-2048x1245-14wjcllu.png;" vertex="1" parent="1">
          <mxGeometry x="1104.62" y="-204.9" width="90.38" height="54.9" as="geometry" />
        </mxCell>
      </root>
    </mxGraphModel>
  </diagram>
</mxfile>
